<?xml version="1.0" encoding="UTF-8"?>
<!DOCTYPE svg PUBLIC "-//W3C//DTD SVG 1.1//EN" "http://www.w3.org/Graphics/SVG/1.1/DTD/svg11.dtd">
<svg xmlns="http://www.w3.org/2000/svg" version="1.1" width="572px" height="185px" style="shape-rendering:geometricPrecision; text-rendering:geometricPrecision; image-rendering:optimizeQuality; fill-rule:evenodd; clip-rule:evenodd" xmlns:xlink="http://www.w3.org/1999/xlink">
<g><path style="opacity:1" fill="#fdfefe" d="M -0.5,-0.5 C 190.167,-0.5 380.833,-0.5 571.5,-0.5C 571.5,61.1667 571.5,122.833 571.5,184.5C 380.833,184.5 190.167,184.5 -0.5,184.5C -0.5,122.833 -0.5,61.1667 -0.5,-0.5 Z"/></g>
<g><path style="opacity:1" fill="#393939" d="M 336.5,20.5 C 338.831,20.4977 340.831,21.331 342.5,23C 348.676,28.344 354.676,33.844 360.5,39.5C 356.334,42.4175 352.001,45.0841 347.5,47.5C 343.562,38.6224 339.895,29.6224 336.5,20.5 Z"/></g>
<g><path style="opacity:1" fill="#393939" d="M 313.5,24.5 C 313.5,28.5 313.5,32.5 313.5,36.5C 313.547,48.355 314.214,60.0216 315.5,71.5C 316.309,83.4817 316.642,95.4817 316.5,107.5C 316.5,111.167 316.5,114.833 316.5,118.5C 312.5,118.5 308.5,118.5 304.5,118.5C 305.575,88.8213 306.908,59.1546 308.5,29.5C 309.451,28.0813 309.784,26.4147 309.5,24.5C 310.833,24.5 312.167,24.5 313.5,24.5 Z"/></g>
<g><path style="opacity:1" fill="#3b3b3b" d="M 484.5,30.5 C 484.5,34.8333 484.5,39.1667 484.5,43.5C 490.833,43.5 497.167,43.5 503.5,43.5C 514.5,43.5 525.5,43.5 536.5,43.5C 536.5,44.8333 536.5,46.1667 536.5,47.5C 519.495,48.0399 502.495,48.7066 485.5,49.5C 486.449,78.8356 487.449,108.169 488.5,137.5C 484.5,137.5 480.5,137.5 476.5,137.5C 477.024,112.829 477.691,88.1625 478.5,63.5C 479.486,59.03 479.819,54.3633 479.5,49.5C 475.629,49.185 471.962,49.5184 468.5,50.5C 460.833,50.5 453.167,50.5 445.5,50.5C 439.833,50.5 434.167,50.5 428.5,50.5C 428.5,48.1667 428.5,45.8333 428.5,43.5C 445.675,43.8299 462.675,43.4966 479.5,42.5C 479.5,36.1667 479.5,29.8333 479.5,23.5C 481.167,23.5 482.833,23.5 484.5,23.5C 484.5,25.8333 484.5,28.1667 484.5,30.5 Z"/></g>
<g><path style="opacity:1" fill="#74ece8" d="M 165.5,27.5 C 157.125,27.2596 148.792,27.5929 140.5,28.5C 144.276,27.1752 148.443,26.5085 153,26.5C 157.347,26.501 161.514,26.8343 165.5,27.5 Z"/></g>
<g><path style="opacity:1" fill="#3a3a3a" d="M 392.5,22.5 C 394.635,22.147 395.968,22.9803 396.5,25C 393.224,32.3855 389.557,39.5522 385.5,46.5C 381.779,44.6465 378.446,42.3131 375.5,39.5C 381.006,33.5988 386.673,27.9321 392.5,22.5 Z"/></g>
<g><path style="opacity:1" fill="#1fd6cb" d="M 165.5,27.5 C 183.909,31.1518 197.409,41.4852 206,58.5C 207.079,61.0627 207.579,63.7294 207.5,66.5C 207.635,72.181 207.968,77.8477 208.5,83.5C 203.5,83.5 198.5,83.5 193.5,83.5C 193.802,80.9407 193.468,78.6074 192.5,76.5C 189.856,55.3297 178.189,41.9963 157.5,36.5C 148.343,34.0996 139.343,34.7663 130.5,38.5C 120.297,43.0336 112.63,50.3669 107.5,60.5C 106.311,61.4287 104.978,61.762 103.5,61.5C 104.302,57.6057 105.802,53.939 108,50.5C 111.38,45.4526 115.714,41.4526 121,38.5C 121.249,37.376 121.749,36.376 122.5,35.5C 128.094,32.0333 134.094,29.7 140.5,28.5C 148.792,27.5929 157.125,27.2596 165.5,27.5 Z"/></g>
<g><path style="opacity:1" fill="#8a8a8a" d="M 313.5,24.5 C 312.167,24.5 310.833,24.5 309.5,24.5C 309.784,26.4147 309.451,28.0813 308.5,29.5C 308.5,27.5 308.5,25.5 308.5,23.5C 310.415,23.2155 312.081,23.5489 313.5,24.5 Z"/></g>
<g><path style="opacity:1" fill="#bcf7f5" d="M 157.5,36.5 C 148.399,36.1189 139.399,36.7855 130.5,38.5C 139.343,34.7663 148.343,34.0996 157.5,36.5 Z"/></g>
<g><path style="opacity:1" fill="#c0c0c0" d="M 484.5,30.5 C 485.483,34.2984 485.817,38.2984 485.5,42.5C 491.69,42.1771 497.69,42.5104 503.5,43.5C 497.167,43.5 490.833,43.5 484.5,43.5C 484.5,39.1667 484.5,34.8333 484.5,30.5 Z"/></g>
<g><path style="opacity:1" fill="#3f3f3f" d="M 316.5,54.5 C 315.89,53.609 315.557,52.609 315.5,51.5C 317.6,49.502 319.6,47.3353 321.5,45C 322.167,44.3333 322.833,44.3333 323.5,45C 327.001,50.5321 329.501,56.3655 331,62.5C 326.277,59.6045 321.443,56.9378 316.5,54.5 Z"/></g>
<g><path style="opacity:1" fill="#6e6e6e" d="M 479.5,42.5 C 462.675,43.4966 445.675,43.8299 428.5,43.5C 428.5,45.8333 428.5,48.1667 428.5,50.5C 434.167,50.5 439.833,50.5 445.5,50.5C 439.69,51.4896 433.69,51.8229 427.5,51.5C 427.5,48.5 427.5,45.5 427.5,42.5C 444.833,42.5 462.167,42.5 479.5,42.5 Z"/></g>
<g><path style="opacity:1" fill="#9b9b9b" d="M 468.5,50.5 C 471.962,49.5184 475.629,49.185 479.5,49.5C 479.819,54.3633 479.486,59.03 478.5,63.5C 478.5,59.1667 478.5,54.8333 478.5,50.5C 475.167,50.5 471.833,50.5 468.5,50.5 Z"/></g>
<g><path style="opacity:1" fill="#3b3b3b" d="M 332.5,49.5 C 356.833,49.5 381.167,49.5 405.5,49.5C 406.296,63.3588 403.463,76.3588 397,88.5C 394.833,90.6667 392.667,92.8333 390.5,95C 383.842,95.4996 377.175,95.6663 370.5,95.5C 369.337,104.513 371.17,112.846 376,120.5C 382.667,127.014 390.167,128.181 398.5,124C 403.384,120.398 405.718,115.565 405.5,109.5C 406.833,109.5 408.167,109.5 409.5,109.5C 409.5,118.833 409.5,128.167 409.5,137.5C 400.161,137.666 390.827,137.5 381.5,137C 373.691,133.574 368.524,127.741 366,119.5C 364.637,111.571 364.137,103.571 364.5,95.5C 363.5,95.5 362.5,95.5 361.5,95.5C 362.476,109.364 358.476,121.531 349.5,132C 345.186,134.66 340.519,136.327 335.5,137C 324.505,137.5 313.505,137.667 302.5,137.5C 302.5,132.833 302.5,128.167 302.5,123.5C 312.192,123.528 321.859,123.028 331.5,122C 348.595,121.406 356.928,112.573 356.5,95.5C 348.5,95.5 340.5,95.5 332.5,95.5C 332.5,80.1667 332.5,64.8333 332.5,49.5 Z"/></g>
<g><path style="opacity:1" fill="#fcfcfc" d="M 347.5,53.5 C 361.171,53.3334 374.837,53.5001 388.5,54C 396.311,55.8297 400.145,60.663 400,68.5C 396.297,81.8598 387.464,89.0265 373.5,90C 363.167,90.6667 352.833,90.6667 342.5,90C 340.045,87.5958 338.212,84.7625 337,81.5C 333.373,69.1865 336.873,59.8532 347.5,53.5 Z"/></g>
<g><path style="opacity:1" fill="#31dacf" d="M 73.5,52.5 C 78.6989,52.0144 83.6989,52.6811 88.5,54.5C 91.7263,59.6282 90.7263,63.7949 85.5,67C 81.5,67.6667 77.5,67.6667 73.5,67C 68.2356,62.1312 68.2356,57.2979 73.5,52.5 Z"/></g>
<g><path style="opacity:1" fill="#3b3b3b" d="M 503.5,58.5 C 506.465,61.3237 508.965,64.657 511,68.5C 521.5,87.5 532,106.5 542.5,125.5C 539.833,126.833 537.167,126.833 534.5,125.5C 525.333,108.5 516.167,91.5 507,74.5C 504.265,69.7009 502.098,64.7009 500.5,59.5C 501.791,59.7373 502.791,59.404 503.5,58.5 Z"/></g>
<g><path style="opacity:1" fill="#a8a8a8" d="M 470.5,59.5 C 464.5,59.5 458.5,59.5 452.5,59.5C 452.829,73.0105 452.496,86.3438 451.5,99.5C 451.5,85.8333 451.5,72.1667 451.5,58.5C 458.022,58.1765 464.355,58.5098 470.5,59.5 Z"/></g>
<g><path style="opacity:1" fill="#23d7cc" d="M 49.5,61.5 C 55.1988,60.9307 60.5322,61.9307 65.5,64.5C 69.0453,71.9158 66.712,76.7491 58.5,79C 47.3188,80.9837 42.6521,76.4837 44.5,65.5C 46.21,64.1128 47.8767,62.7794 49.5,61.5 Z"/></g>
<g><path style="opacity:1" fill="#3b3b3b" d="M 290.5,61.5 C 294.506,64.9259 299.173,66.2593 304.5,65.5C 304.5,66.8333 304.5,68.1667 304.5,69.5C 299.807,68.5403 296.474,70.2069 294.5,74.5C 293.511,79.9753 293.178,85.642 293.5,91.5C 292.5,91.5 291.5,91.5 290.5,91.5C 290.5,81.5 290.5,71.5 290.5,61.5 Z"/></g>
<g><path style="opacity:1" fill="#7ff0ec" d="M 92.5,69.5 C 96.4861,68.8343 100.653,68.501 105,68.5C 111.083,68.2989 116.916,68.9656 122.5,70.5C 112.524,69.6677 102.524,69.3344 92.5,69.5 Z"/></g>
<g><path style="opacity:1" fill="#7d7d7d" d="M 313.5,36.5 C 314.167,41.5 314.833,46.5 315.5,51.5C 315.557,52.609 315.89,53.609 316.5,54.5C 315.511,59.9753 315.178,65.642 315.5,71.5C 314.214,60.0216 313.547,48.355 313.5,36.5 Z"/></g>
<g><path style="opacity:1" fill="#77ece5" d="M 207.5,66.5 C 208.765,67.5145 209.431,69.0145 209.5,71C 210.198,75.8108 210.531,80.6441 210.5,85.5C 204.5,85.5 198.5,85.5 192.5,85.5C 192.5,82.5 192.5,79.5 192.5,76.5C 193.468,78.6074 193.802,80.9407 193.5,83.5C 198.5,83.5 203.5,83.5 208.5,83.5C 207.968,77.8477 207.635,72.181 207.5,66.5 Z"/></g>
<g><path style="opacity:1" fill="#24d7cc" d="M 29.5,79.5 C 35.6751,78.6432 41.3418,79.8099 46.5,83C 50.675,89.6974 49.0083,94.6974 41.5,98C 34.768,99.4066 28.768,98.0733 23.5,94C 22.2126,90.8753 22.2126,87.7087 23.5,84.5C 25.3062,82.4927 27.3062,80.8261 29.5,79.5 Z"/></g>
<g><path style="opacity:1" fill="#848484" d="M 290.5,61.5 C 290.5,71.5 290.5,81.5 290.5,91.5C 291.5,91.5 292.5,91.5 293.5,91.5C 293.178,85.642 293.511,79.9753 294.5,74.5C 294.5,80.5 294.5,86.5 294.5,92.5C 292.833,92.5 291.167,92.5 289.5,92.5C 289.168,81.4166 289.501,71.0833 290.5,61.5 Z"/></g>
<g><path style="opacity:1" fill="#19d5ca" d="M 92.5,69.5 C 102.524,69.3344 112.524,69.6677 122.5,70.5C 128.85,72.8433 134.85,76.01 140.5,80C 144.722,83.4951 146.722,87.9951 146.5,93.5C 141.145,91.7672 136.145,89.2672 131.5,86C 115.038,80.5808 99.0384,81.5808 83.5,89C 67.1266,101.706 63.9599,117.206 74,135.5C 76.9011,138.74 80.0678,141.574 83.5,144C 96.8731,147.302 109.54,145.635 121.5,139C 136.055,128.455 150.055,117.122 163.5,105C 168.134,102.012 172.8,99.0124 177.5,96C 196.542,86.4278 214.542,88.0945 231.5,101C 234,104.167 236.5,107.333 239,110.5C 245.45,136.562 236.116,153.895 211,162.5C 207.875,163.256 204.709,163.589 201.5,163.5C 191.977,163.452 182.643,162.119 173.5,159.5C 164.793,156.794 159.127,151.127 156.5,142.5C 171.894,149.246 187.894,151.079 204.5,148C 221.434,140.486 225.267,128.653 216,112.5C 209.555,106.798 202.055,104.964 193.5,107C 186.847,109.77 180.514,113.103 174.5,117C 162.167,127.333 149.833,137.667 137.5,148C 128.267,153.286 118.6,157.453 108.5,160.5C 98.8138,161.777 89.1471,161.777 79.5,160.5C 74.1581,159.526 69.1581,157.526 64.5,154.5C 57.5847,148.313 52.418,140.98 49,132.5C 47.1565,128.536 46.3232,124.37 46.5,120C 47.7106,102.122 55.7106,88.1222 70.5,78C 77.5775,74.2863 84.9109,71.4529 92.5,69.5 Z"/></g>
<g><path style="opacity:1" fill="#383838" d="M 470.5,59.5 C 470.5,60.5 470.5,61.5 470.5,62.5C 463.742,62.0889 459.242,65.0889 457,71.5C 455.738,85.4452 455.071,99.4452 455,113.5C 452.608,121.392 447.442,126.392 439.5,128.5C 433.5,128.5 427.5,128.5 421.5,128.5C 421.5,123.833 421.5,119.167 421.5,114.5C 428.589,114.884 435.589,114.384 442.5,113C 447.62,109.93 450.62,105.43 451.5,99.5C 452.496,86.3438 452.829,73.0105 452.5,59.5C 458.5,59.5 464.5,59.5 470.5,59.5 Z"/></g>
<g><path style="opacity:1" fill="#1dd6cb" d="M 21.5,103.5 C 29.206,102.189 35.5393,104.523 40.5,110.5C 41.6547,115.597 39.988,119.764 35.5,123C 27.4074,126.957 20.2408,125.79 14,119.5C 11.8331,115.004 12.3331,110.837 15.5,107C 17.7274,106.059 19.7274,104.892 21.5,103.5 Z"/></g>
<g><path style="opacity:1" fill="#a0a0a0" d="M 316.5,107.5 C 317.483,111.298 317.817,115.298 317.5,119.5C 312.968,119.818 308.634,119.485 304.5,118.5C 308.5,118.5 312.5,118.5 316.5,118.5C 316.5,114.833 316.5,111.167 316.5,107.5 Z"/></g>
<g><path style="opacity:1" fill="#818181" d="M 421.5,114.5 C 421.5,119.167 421.5,123.833 421.5,128.5C 427.5,128.5 433.5,128.5 439.5,128.5C 433.355,129.49 427.022,129.823 420.5,129.5C 420.179,124.305 420.513,119.305 421.5,114.5 Z"/></g>
<g><path style="opacity:1" fill="#23d6cc" d="M 17.5,130.5 C 27.342,128.428 35.5086,131.094 42,138.5C 42.1995,145.999 38.6995,151.165 31.5,154C 22.2898,156.306 14.4564,154.139 8,147.5C 5.87,143.726 6.03667,140.059 8.5,136.5C 11.2933,134.013 14.2933,132.013 17.5,130.5 Z"/></g>
<g><path style="opacity:1" fill="#374046" d="M 313.5,154.5 C 316.473,157.007 319.473,159.674 322.5,162.5C 324.471,160.192 326.471,157.858 328.5,155.5C 329.365,154.417 330.365,154.251 331.5,155C 325.986,159.995 322.986,166.161 322.5,173.5C 321.679,170.553 321.179,167.553 321,164.5C 318.239,161.286 315.739,157.953 313.5,154.5 Z"/></g>
<g><path style="opacity:1" fill="#88f2ed" d="M 79.5,160.5 C 89.1471,161.777 98.8138,161.777 108.5,160.5C 107.737,161.268 106.737,161.768 105.5,162C 101.167,162.167 96.8333,162.333 92.5,162.5C 87.7784,162.492 83.4451,161.825 79.5,160.5 Z"/></g>
<g><path style="opacity:1" fill="#39434a" d="M 471.5,173.5 C 471.666,168.489 471.499,163.489 471,158.5C 470.283,159.044 469.783,159.711 469.5,160.5C 467.792,163.242 465.625,165.575 463,167.5C 460.691,164.933 458.357,162.266 456,159.5C 455.828,164.202 455.328,168.868 454.5,173.5C 453.167,167.167 453.167,160.833 454.5,154.5C 457.5,157.833 460.5,161.167 463.5,164.5C 466.064,161.72 468.397,158.72 470.5,155.5C 471.325,154.614 472.325,154.281 473.5,154.5C 474.123,161.255 473.456,167.588 471.5,173.5 Z"/></g>
<g><path style="opacity:1" fill="#c6f9f8" d="M 173.5,159.5 C 182.643,162.119 191.977,163.452 201.5,163.5C 196.35,164.651 191.016,164.817 185.5,164C 181.136,163.025 177.136,161.525 173.5,159.5 Z"/></g>
<g><path style="opacity:1" fill="#8e969a" d="M 508.5,169.5 C 507.683,167.031 507.183,164.365 507,161.5C 506.503,164.146 506.336,166.813 506.5,169.5C 505.523,166.713 505.19,163.713 505.5,160.5C 506.5,160.5 507.5,160.5 508.5,160.5C 508.5,163.5 508.5,166.5 508.5,169.5 Z"/></g>
<g><path style="opacity:1" fill="#899095" d="M 517.5,173.5 C 517.666,169.486 517.499,165.486 517,161.5C 516.817,164.365 516.317,167.031 515.5,169.5C 515.5,166.5 515.5,163.5 515.5,160.5C 516.5,160.5 517.5,160.5 518.5,160.5C 518.818,165.032 518.485,169.366 517.5,173.5 Z"/></g>
<g><path style="opacity:1" fill="#c3c4c6" d="M 373.5,161.5 C 374.209,160.596 375.209,160.263 376.5,160.5C 376.818,165.032 376.485,169.366 375.5,173.5C 376.089,169.029 375.423,165.029 373.5,161.5 Z"/></g>
<g><path style="opacity:1" fill="#364047" d="M 420.5,164.5 C 420.5,165.5 420.5,166.5 420.5,167.5C 416.833,167.5 413.167,167.5 409.5,167.5C 409.263,168.791 409.596,169.791 410.5,170.5C 413.576,171.341 416.576,171.674 419.5,171.5C 413.172,176.414 409.172,174.914 407.5,167C 408.621,161.436 411.954,159.436 417.5,161C 418.71,162.039 419.71,163.206 420.5,164.5 Z"/></g>
<g><path style="opacity:1" fill="#dde1e3" d="M 411.5,162.5 C 414.596,161.907 416.929,162.907 418.5,165.5C 415.5,166.833 412.5,166.833 409.5,165.5C 410.193,164.482 410.859,163.482 411.5,162.5 Z"/></g>
<g><path style="opacity:1" fill="#81878c" d="M 420.5,164.5 C 421.434,165.568 421.768,166.901 421.5,168.5C 417.351,167.92 413.684,168.586 410.5,170.5C 409.596,169.791 409.263,168.791 409.5,167.5C 413.167,167.5 416.833,167.5 420.5,167.5C 420.5,166.5 420.5,165.5 420.5,164.5 Z"/></g>
<g><path style="opacity:1" fill="#404b51" d="M 373.5,161.5 C 375.423,165.029 376.089,169.029 375.5,173.5C 373.897,172.323 372.564,172.489 371.5,174C 367.834,175.271 365.334,174.104 364,170.5C 363.179,167.446 363.345,164.446 364.5,161.5C 365.318,164.107 365.818,166.774 366,169.5C 368.333,172.167 370.667,172.167 373,169.5C 373.497,166.854 373.664,164.187 373.5,161.5 Z"/></g>
<g><path style="opacity:1" fill="#a7abae" d="M 471.5,173.5 C 470.833,169.167 470.167,164.833 469.5,160.5C 469.783,159.711 470.283,159.044 471,158.5C 471.499,163.489 471.666,168.489 471.5,173.5 Z"/></g>
<g><path style="opacity:1" fill="#353f45" d="M 508.5,169.5 C 509.134,170.947 510.301,171.613 512,171.5C 513.699,171.613 514.866,170.947 515.5,169.5C 516.317,167.031 516.817,164.365 517,161.5C 517.499,165.486 517.666,169.486 517.5,173.5C 514.859,174.263 512.192,174.43 509.5,174C 507.859,172.871 506.859,171.371 506.5,169.5C 506.336,166.813 506.503,164.146 507,161.5C 507.183,164.365 507.683,167.031 508.5,169.5 Z"/></g>
</svg>
